<svg xmlns="http://www.w3.org/2000/svg" width="540" height="530" viewBox="0 0 540 530" version="1.1">
	<path d="M 212.400 72.400 C 209.613 75.187, 209 76.557, 209 80 C 209 83.443, 209.613 84.813, 212.400 87.600 C 216.230 91.430, 220.141 92.013, 225.033 89.483 C 228.265 87.812, 231.002 83.367, 230.996 79.800 C 230.991 76.467, 227.411 71.107, 224.434 69.975 C 219.496 68.097, 215.998 68.802, 212.400 72.400 M 335.911 71.935 C 334.297 73.549, 332.704 76.232, 332.371 77.896 L 331.765 80.923 270.633 101.024 C 237.010 112.081, 191.662 127.029, 169.859 134.244 L 130.218 147.361 127.032 144.681 C 122.280 140.682, 116.851 140.949, 112.400 145.400 C 109.973 147.827, 109 149.701, 109 151.950 C 109 156.325, 111.482 160.681, 115.017 162.509 L 118 164.051 117.961 270.276 L 117.923 376.500 114.711 378.516 C 112.685 379.788, 110.984 382.017, 110.103 384.556 C 108.860 388.138, 108.896 388.978, 110.431 392.212 C 113.574 398.837, 123.043 400.925, 127.518 395.980 C 128.503 394.891, 129.916 394, 130.657 394 C 131.398 394, 159.341 402.821, 192.752 413.603 C 226.163 424.384, 271.259 438.908, 292.964 445.878 L 332.428 458.550 333.136 462.011 C 334.149 466.964, 339 471, 343.939 471 C 351.803 471, 357.133 462.739, 353.805 455.710 L 352.347 452.633 374.824 421.566 C 387.186 404.480, 410.156 372.725, 425.868 351 C 441.581 329.275, 459.464 304.557, 465.608 296.071 L 476.781 280.642 481.871 280.568 C 486.043 280.508, 487.459 279.995, 489.730 277.724 C 492.011 275.443, 492.500 274.080, 492.500 270 C 492.500 263.150, 489.036 259.565, 482.380 259.527 L 477.753 259.500 414.770 173.632 C 356.217 93.803, 351.864 87.593, 352.893 85.335 C 355.023 80.661, 354.272 75.119, 351.077 71.923 C 348.684 69.530, 347.310 69, 343.500 69 C 339.685 69, 338.317 69.529, 335.911 71.935 M 294 97.904 C 272.825 104.898, 227.658 119.811, 193.629 131.044 C 152.240 144.707, 131.608 151.970, 131.306 152.984 C 129.837 157.912, 127.693 161.107, 124.878 162.563 L 121.680 164.217 122.314 270.350 C 122.820 355.086, 123.205 376.568, 124.224 376.906 C 126.636 377.707, 130.736 382.932, 131.346 385.981 C 131.770 388.100, 132.804 389.356, 134.728 390.090 C 136.914 390.923, 296.355 442.398, 326.523 452.010 L 333.546 454.248 337.501 451.564 C 340.428 449.577, 342.462 448.953, 345.329 449.160 L 349.202 449.439 411.110 363.970 C 457.673 299.687, 472.883 278.004, 472.471 276.500 C 470.894 270.752, 470.866 267.976, 472.353 264.994 L 473.940 261.814 411.178 176.219 L 348.416 90.624 343.958 90.523 C 339.693 90.427, 334 87.775, 334 85.885 C 334 85.398, 333.663 85.042, 333.250 85.094 C 332.837 85.146, 315.175 90.910, 294 97.904 M 437.353 142.926 C 433.769 145.112, 431.566 150.421, 432.575 154.441 C 432.939 155.895, 434.569 158.415, 436.196 160.042 C 442.854 166.700, 454.333 161.610, 454.333 152 C 454.333 143.138, 445.099 138.203, 437.353 142.926 M 77.315 260.425 C 73.641 262.068, 71 266.511, 71 271.050 C 71 275.693, 76.574 281, 81.450 281 C 90.292 281, 95.190 273.889, 92.045 265.617 C 90.123 260.563, 82.788 257.977, 77.315 260.425 M 438.763 377.531 C 430.623 382.050, 431.652 395.429, 440.324 397.824 C 445.108 399.145, 448.347 398.291, 451.658 394.835 C 455.757 390.557, 455.689 384.209, 451.500 380.087 C 447.825 376.470, 442.571 375.416, 438.763 377.531 M 214.756 450.755 C 205.224 456.665, 209.312 471, 220.529 471 C 226.575 471, 231 466.836, 231 461.146 C 231 455.592, 229.321 452.380, 225.460 450.548 C 221.280 448.565, 218.192 448.624, 214.756 450.755" stroke="none" fill="black" fill-rule="evenodd"/>
</svg>