<svg xmlns="http://www.w3.org/2000/svg" width="494" height="492" viewBox="0 0 494 492" version="1.1">
	<path d="M 262 36.727 C 257.123 39.198, 254.448 44.797, 255.958 49.373 C 256.573 51.235, 257.866 53.473, 258.831 54.347 C 260.500 55.858, 260.210 58.718, 252.981 111.948 C 248.797 142.754, 245.177 168.142, 244.937 168.365 C 244.697 168.588, 236.684 145.005, 227.132 115.958 L 209.763 63.145 213.882 59.227 C 217.412 55.869, 218 54.718, 218 51.171 C 218 48.010, 217.310 46.259, 215.082 43.766 C 212.515 40.893, 211.555 40.500, 207.105 40.500 C 200.463 40.500, 197.020 43.645, 196.257 50.410 C 195.761 54.809, 195.946 55.259, 199.729 58.857 L 203.725 62.659 213.228 118.909 C 218.772 151.729, 222.221 174.605, 221.507 173.829 C 220.232 172.444, 158.944 86.503, 157.568 84.170 C 157.070 83.326, 157.525 82.321, 158.815 81.417 C 164.247 77.612, 163.575 67.541, 157.647 63.926 C 149.683 59.070, 141.067 63.826, 141.022 73.104 C 140.997 78.283, 143.909 82.437, 148.345 83.550 C 150.474 84.085, 153.273 88.969, 166.563 115.341 C 175.199 132.478, 187.003 155.684, 192.794 166.909 C 198.585 178.134, 202.709 186.938, 201.957 186.474 C 200.944 185.847, 115.025 120.989, 113.176 119.455 C 112.998 119.307, 113.561 117.816, 114.426 116.143 C 116.434 112.260, 116.440 107.073, 114.439 104.217 C 112.585 101.570, 107.935 99, 105 99 C 99.286 99, 94 104.735, 94 110.935 C 94 115.213, 98.594 120.083, 103.378 120.876 C 106.744 121.434, 111.343 125.826, 146.965 162.500 C 168.868 185.050, 186.662 203.636, 186.508 203.802 C 186.354 203.969, 162.665 195.594, 133.864 185.192 C 95.279 171.256, 81.611 165.914, 81.921 164.890 C 83.097 161.009, 82.391 155.087, 80.500 152.967 C 73.165 144.741, 61 148.816, 61 159.500 C 61 162.227, 61.716 164.641, 63.016 166.293 C 65.316 169.217, 71.036 171.441, 73.910 170.529 C 75.282 170.093, 90.831 178.032, 126.943 197.606 C 155.043 212.837, 177.914 225.383, 177.767 225.485 C 177.620 225.588, 154.775 224.644, 127 223.389 C 99.225 222.133, 73.912 221.082, 70.750 221.053 L 65 221 65 216.723 C 65 211.582, 62.891 208.270, 58.431 206.407 C 48.606 202.302, 39.300 212.928, 44.706 222.080 C 47.348 226.553, 52.259 228.467, 57.397 227.029 C 61.211 225.961, 66.053 226.739, 113.037 235.970 C 141.342 241.531, 165.548 246.412, 166.829 246.817 C 168.473 247.336, 154.190 251.005, 118.329 259.277 C 90.373 265.725, 66.884 271.001, 66.132 271.001 C 65.380 271, 63.226 269.650, 61.347 268 C 57.491 264.614, 53.558 264.143, 48.967 266.517 C 45.807 268.151, 43 272.612, 43 276 C 43 278.935, 45.570 283.585, 48.217 285.439 C 53.873 289.401, 64.898 285, 64.978 278.750 C 64.992 277.608, 65.782 277, 67.250 277 C 68.487 277, 93.312 275.182, 122.415 272.959 C 151.518 270.736, 175.925 269.048, 176.652 269.208 C 177.379 269.369, 156.153 282.244, 129.483 297.820 L 80.993 326.139 78.361 324.070 C 74.121 320.734, 68.533 321.267, 64.400 325.400 C 61.613 328.187, 61 329.557, 61 333 C 61 336.443, 61.613 337.813, 64.400 340.600 C 67.140 343.340, 68.581 344, 71.823 344 C 77.204 344, 81.782 340.218, 82.600 335.097 L 83.195 331.376 135.294 310.718 C 163.949 299.356, 187.544 290.211, 187.729 290.396 C 187.914 290.580, 171.132 309.274, 150.437 331.936 C 120.708 364.491, 112.462 372.976, 111.155 372.353 C 110.245 371.920, 107.605 371.563, 105.289 371.558 C 97.843 371.545, 93.089 378.117, 95.149 385.579 C 97.901 395.545, 112.666 395.603, 115.947 385.661 C 116.548 383.841, 116.918 381.303, 116.769 380.022 C 116.541 378.046, 123.137 372.312, 160 342.434 C 183.925 323.042, 203.654 307.328, 203.842 307.514 C 204.030 307.699, 193.594 330.497, 180.651 358.175 L 157.117 408.500 154.150 408.198 C 146.390 407.409, 140.021 413.968, 141.402 421.328 C 143.253 431.195, 157.316 433.246, 161.883 424.316 C 163.218 421.705, 163.324 416.060, 162.074 414.086 C 161.425 413.061, 169.873 399.655, 192.778 365.358 C 210.158 339.335, 224.490 318.157, 224.628 318.295 C 224.766 318.432, 221.535 343.060, 217.450 373.023 C 213.364 402.985, 210.016 428.063, 210.010 428.750 C 210.005 429.438, 208.832 430, 207.404 430 C 203.944 430, 199.426 432.769, 198.085 435.712 C 197.488 437.022, 197 439.807, 197 441.901 C 197 452.013, 210.944 455.691, 216.716 447.102 C 219.514 442.940, 219.605 439.505, 217.031 435.283 L 215.070 432.066 231.002 377.899 C 239.765 348.107, 247.093 323.574, 247.286 323.381 C 247.602 323.065, 266.101 431.482, 266.030 433.237 C 266.013 433.642, 264.455 434.619, 262.566 435.408 C 252.906 439.444, 254.349 453.097, 264.761 456.166 C 274.631 459.076, 282.444 445.290, 275.092 437.938 L 272.183 435.029 271.208 378.265 C 270.671 347.044, 270.357 321.360, 270.510 321.189 C 270.664 321.018, 282.270 343.503, 296.302 371.156 L 321.814 421.435 319.078 423.099 C 313.081 426.745, 312.578 435.784, 318.111 440.440 C 323.288 444.796, 332.202 443.241, 334.805 437.528 C 337.484 431.648, 334.992 424.042, 329.750 422.103 C 328.167 421.517, 324.245 410.652, 309.874 367.035 C 300.027 337.148, 292.092 312.575, 292.239 312.427 C 292.387 312.280, 310.105 330.235, 331.612 352.329 L 370.716 392.500 368.358 395.327 C 364.858 399.523, 365.093 405.817, 368.901 409.894 C 371.330 412.495, 372.548 413, 376.385 413 C 389.074 413, 392.315 395.578, 380.298 391.968 C 376.781 390.912, 374.094 387.459, 344 345.322 C 326.125 320.295, 311.098 299.109, 310.608 298.243 C 310.060 297.277, 312.186 298.035, 316.108 300.204 C 319.623 302.149, 341.850 314.215, 365.500 327.019 C 389.150 339.823, 408.614 350.384, 408.754 350.487 C 408.894 350.591, 408.286 352.123, 407.403 353.893 C 402.918 362.884, 412.992 373.158, 421.818 368.594 C 426.143 366.358, 428 363.235, 428 358.201 C 428 351.590, 422.865 347.082, 416.286 347.917 C 415.363 348.034, 326.974 282.015, 322.606 277.945 C 322.114 277.487, 322.564 277.312, 323.606 277.557 C 324.648 277.802, 347.325 282.283, 374 287.516 C 400.675 292.748, 424.774 297.486, 427.552 298.044 L 432.605 299.060 432.552 304.505 C 432.485 311.540, 435.470 314.961, 442.355 315.737 C 446.586 316.213, 447.223 315.977, 450.473 312.727 C 453.389 309.811, 454 308.473, 454 305 C 454 301.543, 453.388 300.188, 450.540 297.340 C 447.363 294.163, 446.650 293.902, 441.790 294.141 C 437.110 294.371, 430.606 292.275, 385.345 275.951 C 357.209 265.803, 334.317 257.367, 334.473 257.205 C 334.629 257.042, 358.430 255.104, 387.364 252.897 L 439.970 248.885 443.830 252.942 C 447.163 256.445, 448.272 257, 451.945 257 C 455.451 257, 456.799 256.401, 459.600 253.600 C 462.387 250.813, 463 249.443, 463 246 C 463 237.913, 453.828 232.346, 446.747 236.135 C 445.142 236.994, 431.279 236.700, 389.813 234.929 C 359.666 233.640, 335 232.325, 335 232.005 C 335 231.573, 420.402 197.335, 431.181 193.445 C 432.158 193.093, 434.155 193.794, 435.948 195.119 C 441.405 199.154, 449.641 197.529, 452.585 191.835 C 457.266 182.784, 449.006 172.863, 439.423 176.026 C 435.800 177.221, 432.011 181.898, 432.004 185.183 C 432.002 186.108, 431.212 187.090, 430.250 187.364 C 423.580 189.264, 322.754 212.087, 322.436 211.769 C 322.216 211.549, 341.585 195.553, 365.479 176.223 L 408.922 141.078 411.711 142.533 C 415.529 144.525, 418.895 144.361, 422.775 141.996 C 429.006 138.197, 429.837 130.637, 424.600 125.400 C 421.843 122.643, 420.427 122, 417.116 122 C 411.360 122, 406.890 126.085, 406.089 132.078 L 405.500 136.479 357.137 164.740 C 330.537 180.283, 308.599 193, 308.386 193 C 308.172 193, 322.041 171.933, 339.206 146.185 L 370.414 99.370 375.664 99.805 C 380.458 100.203, 381.177 99.977, 383.957 97.197 C 386.446 94.708, 387 93.335, 387 89.654 C 387 81.026, 379.571 76.063, 371.626 79.383 C 367.069 81.287, 364.557 86.417, 365.486 91.919 C 366.105 95.582, 366.079 95.614, 328.443 136.850 C 307.729 159.545, 290.613 177.946, 290.408 177.741 C 290.202 177.536, 297.060 153.486, 305.647 124.298 L 321.259 71.229 325.241 70.694 C 333.075 69.644, 337.919 61.611, 334.594 55.182 C 332.382 50.905, 329.245 49, 324.412 49 C 316.224 49, 311.685 56.123, 314.662 64.301 L 316.192 68.500 292.346 119.451 L 268.500 170.401 267.864 153.951 C 267.514 144.903, 266.962 119.709, 266.637 97.964 L 266.046 58.428 270.273 56.464 C 276.143 53.737, 278.808 48.409, 276.861 43.295 C 274.344 36.681, 267.801 33.789, 262 36.727 M 254.690 129.197 L 247.918 179.500 251.348 189.500 L 254.777 199.500 259.405 189.645 L 264.032 179.790 263.356 131.645 C 262.984 105.165, 262.406 82.464, 262.071 81.197 C 261.736 79.930, 258.414 101.530, 254.690 129.197 M 211.408 83.500 C 211.650 85.150, 215.500 108.227, 219.964 134.782 L 228.080 183.064 234.166 191.572 C 237.514 196.252, 240.407 199.927, 240.596 199.738 C 240.784 199.549, 241.608 194.918, 242.425 189.447 L 243.912 179.500 227.440 130 C 218.380 102.775, 211.166 81.850, 211.408 83.500 M 289.693 134.489 L 268 180.927 268.047 191.713 L 268.094 202.500 275.572 194.563 C 282.390 187.326, 283.264 185.916, 285.483 178.563 C 293.849 150.840, 311.924 88.591, 311.679 88.345 C 311.517 88.184, 301.623 108.949, 289.693 134.489 M 187.104 146.824 L 210.500 193.149 218.994 199.497 C 223.665 202.989, 227.556 205.768, 227.641 205.673 C 228.060 205.200, 224.265 185.229, 223.515 183.964 C 222.035 181.466, 165.763 102.559, 164.706 101.500 C 164.157 100.950, 174.236 121.346, 187.104 146.824 M 321.630 150.250 L 286.762 188.500 283.838 198.374 C 282.230 203.804, 281.053 208.387, 281.224 208.557 C 281.394 208.728, 285.462 206.612, 290.263 203.855 L 298.993 198.843 327.290 156.671 C 357.694 111.359, 357.271 112, 356.808 112 C 356.638 112, 340.808 129.213, 321.630 150.250 M 138.534 148.051 C 146.802 156.548, 163.306 173.508, 175.208 185.741 L 196.849 207.981 206.544 211.491 C 211.876 213.421, 216.407 215, 216.613 215 C 216.818 215, 214.852 210.700, 212.243 205.444 L 207.500 195.887 167 165.278 C 144.725 148.443, 125.825 134.204, 125 133.636 C 124.175 133.068, 130.265 139.554, 138.534 148.051 M 349.437 173.808 C 326.302 187.389, 306.166 199.297, 304.691 200.271 C 302.083 201.991, 290.657 217.990, 291.461 218.794 C 291.682 219.015, 296.201 218.207, 301.503 216.999 C 312.536 214.486, 306.944 218.451, 360.500 175.167 C 389.356 151.846, 392.850 148.947, 391.964 149.058 C 391.709 149.091, 372.572 160.228, 349.437 173.808 M 97 176.787 C 97.825 177.303, 118.525 188.555, 143 201.792 L 187.500 225.859 198.500 226.577 L 209.500 227.296 202.580 219.898 C 198.773 215.829, 194.723 211.992, 193.580 211.371 C 191.856 210.435, 101.750 177.711, 97 176.296 C 95.667 175.899, 95.667 175.953, 97 176.787 M 245.356 197.232 C 244.407 205.023, 244.478 205.694, 246.592 208.860 L 248.835 212.221 250.537 208.929 C 252.170 205.770, 252.146 205.334, 249.937 198.069 C 248.672 193.906, 247.350 190.154, 247 189.732 C 246.650 189.310, 245.911 192.685, 245.356 197.232 M 260.146 197.601 C 257.570 203.116, 256.950 205.498, 257.473 207.878 C 258.384 212.025, 259.293 212.381, 261.896 209.611 C 263.846 207.535, 264.051 206.373, 263.791 198.853 L 263.500 190.423 260.146 197.601 M 230.053 194.056 C 230.082 194.850, 230.686 198.746, 231.397 202.713 C 232.366 208.126, 233.289 210.427, 235.094 211.930 C 238.375 214.662, 238.811 214.527, 239.557 210.548 C 240.127 207.509, 239.595 206.231, 235.102 199.855 C 232.296 195.872, 230.024 193.262, 230.053 194.056 M 274.250 202.084 C 269.613 207.016, 269 208.166, 269 211.926 L 269 216.184 272.219 214.304 C 274.898 212.739, 275.819 211.173, 277.713 204.962 C 278.964 200.858, 279.878 197.275, 279.744 197 C 279.610 196.725, 277.137 199.013, 274.250 202.084 M 362 207.070 C 336.425 213.036, 314.600 218.331, 313.500 218.837 C 312.400 219.344, 308.497 222.229, 304.827 225.248 L 298.154 230.738 310.331 231.432 L 322.509 232.125 367.004 214.470 C 391.477 204.759, 411.688 196.631, 411.917 196.407 C 413.024 195.325, 405.081 197.022, 362 207.070 M 218.854 209.710 C 222.321 216.605, 223.284 217.752, 226.413 218.712 C 229.530 219.668, 229.998 219.596, 229.986 218.156 C 229.953 214.157, 228.448 211.864, 223.152 207.745 C 214.669 201.149, 214.572 201.193, 218.854 209.710 M 285.805 211.035 C 280.955 213.940, 278.906 215.830, 278.099 218.145 C 276.505 222.718, 276.624 222.883, 280.750 221.828 C 283.838 221.038, 285.263 219.716, 288.820 214.338 C 291.197 210.746, 292.977 207.643, 292.776 207.443 C 292.576 207.243, 289.439 208.859, 285.805 211.035 M 243.232 214.923 C 243.515 218.532, 245.356 220.120, 246.327 217.591 C 246.642 216.770, 246.014 215.063, 244.932 213.799 L 242.965 211.500 243.232 214.923 M 252.506 213.980 C 252.161 215.069, 252.277 216.672, 252.764 217.543 C 254.039 219.821, 256.109 217.134, 255.342 214.198 C 254.627 211.466, 253.336 211.366, 252.506 213.980 M 262.750 214.710 C 260.989 216.670, 260.355 220.013, 261.750 219.985 C 263.793 219.943, 265.127 218.009, 264.830 215.523 C 264.506 212.816, 264.467 212.800, 262.750 214.710 M 209.356 220.746 C 213.726 225.243, 216.124 226.921, 218.804 227.356 C 220.779 227.676, 222.550 227.783, 222.740 227.593 C 222.930 227.403, 222.353 225.712, 221.458 223.834 C 219.873 220.510, 217.495 219.263, 205 215.205 C 204.175 214.937, 206.135 217.430, 209.356 220.746 M 234 218.310 C 234 219.906, 234.781 221.348, 236 222 C 237.670 222.894, 238 222.760, 238 221.190 C 238 220.156, 237.100 218.495, 236 217.500 C 234.048 215.734, 234 215.753, 234 218.310 M 271.223 219.557 C 268.601 221.393, 268.231 224.295, 270.678 223.823 C 271.601 223.645, 272.687 222.262, 273.092 220.750 C 273.956 217.520, 274.047 217.578, 271.223 219.557 M 249 222.059 C 249 222.641, 249.450 222.840, 250 222.500 C 250.550 222.160, 251 221.684, 251 221.441 C 251 221.198, 250.550 221, 250 221 C 249.450 221, 249 221.477, 249 222.059 M 256.500 222 C 256.160 222.550, 256.359 223, 256.941 223 C 257.523 223, 258 222.550, 258 222 C 258 221.450, 257.802 221, 257.559 221 C 257.316 221, 256.840 221.450, 256.500 222 M 293.758 222.862 C 289.034 224.010, 286.534 225.193, 285.406 226.815 C 283.525 229.519, 283.531 229.528, 287.698 230.321 C 290.419 230.839, 291.798 230.251, 296.948 226.380 C 300.277 223.878, 303 221.644, 303 221.415 C 303 220.780, 301.103 221.077, 293.758 222.862 M 226 223.459 C 226 225.355, 228.296 228, 229.942 228 C 231.320 228, 231.675 227.474, 231.290 226 C 231.002 224.900, 230.406 224, 229.965 224 C 229.524 224, 228.452 223.727, 227.582 223.393 C 226.712 223.059, 226 223.089, 226 223.459 M 263 225.059 C 263 225.641, 263.450 225.840, 264 225.500 C 264.550 225.160, 265 224.684, 265 224.441 C 265 224.198, 264.550 224, 264 224 C 263.450 224, 263 224.477, 263 225.059 M 132 235.640 L 178.500 245.053 191.228 242.352 L 203.956 239.651 200.975 237.839 C 199.336 236.842, 195.346 234.689, 192.109 233.055 L 186.223 230.084 141.197 228.042 C 116.432 226.919, 93.770 226.051, 90.835 226.113 C 86.972 226.195, 98.325 228.822, 132 235.640 M 276.750 226.689 C 275.788 226.941, 275 227.789, 275 228.573 C 275 230.698, 278.333 230.297, 279.768 228 C 281.095 225.876, 280.632 225.675, 276.750 226.689 M 199 232.055 C 204.700 235.950, 210.367 238.079, 213.336 237.443 C 218.083 236.425, 218.351 236.003, 215.901 233.395 C 213.885 231.249, 212.812 231.002, 205.576 231.015 C 199.749 231.026, 197.918 231.316, 199 232.055 M 222 233.500 C 222.685 234.325, 223.865 235, 224.622 235 C 225.380 235, 226 234.325, 226 233.500 C 226 232.548, 225.042 232, 223.378 232 C 221.160 232, 220.947 232.232, 222 233.500 M 245.299 234.960 C 236.819 240.130, 237.164 252.931, 245.906 257.451 C 257.506 263.450, 269.815 250.410, 263.040 239.299 C 259.311 233.182, 251.391 231.245, 245.299 234.960 M 273 235 C 273 235.550, 273.450 236, 274 236 C 274.550 236, 275 235.550, 275 235 C 275 234.450, 274.550 234, 274 234 C 273.450 234, 273 234.450, 273 235 M 279.607 235.582 C 278.731 237.865, 278.802 238, 280.889 238 C 281.928 238, 283.841 237.115, 285.139 236.033 L 287.500 234.067 283.857 234.033 C 281.435 234.011, 280.011 234.530, 279.607 235.582 M 289.750 237.324 C 288.238 238.562, 287 239.824, 287 240.129 C 287 240.434, 288.767 241.213, 290.928 241.860 C 294.489 242.927, 295.585 242.748, 302.678 239.944 C 306.980 238.243, 310.928 236.434, 311.450 235.925 C 312.034 235.357, 308.565 235.014, 302.450 235.036 C 293.641 235.068, 292.185 235.330, 289.750 237.324 M 314.500 239.534 C 310.100 241.380, 305.150 243.399, 303.500 244.022 C 300.557 245.133, 300.701 245.231, 311 249.157 C 319.141 252.260, 322.821 253.143, 327.383 253.089 C 330.618 253.051, 356.879 251.215, 385.740 249.010 C 414.601 246.804, 438.789 245, 439.491 245 C 440.193 245, 441.002 244.100, 441.290 243 C 441.731 241.313, 441.319 240.999, 438.656 240.993 C 436.920 240.990, 410.525 239.866, 380 238.496 C 349.475 237.125, 324.050 236.044, 323.500 236.091 C 322.950 236.139, 318.900 237.688, 314.500 239.534 M 227 239 C 227 239.550, 227.450 240, 228 240 C 228.550 240, 229 239.550, 229 239 C 229 238.450, 228.550 238, 228 238 C 227.450 238, 227 238.450, 227 239 M 217.222 240.818 C 216.286 241.429, 216.618 241.961, 218.460 242.800 C 221.241 244.067, 224.292 243.386, 223.715 241.627 C 223.256 240.227, 218.946 239.690, 217.222 240.818 M 276 242.059 C 276 242.641, 276.450 242.840, 277 242.500 C 277.550 242.160, 278 241.684, 278 241.441 C 278 241.198, 277.550 241, 277 241 C 276.450 241, 276 241.477, 276 242.059 M 198.750 244.737 C 195.037 245.585, 192 246.577, 192 246.942 C 192 247.307, 195.875 248.353, 200.612 249.266 C 209.020 250.887, 209.319 250.878, 213.238 248.879 L 217.251 246.831 214.102 244.916 C 210.417 242.675, 207.908 242.646, 198.750 244.737 M 281.110 244.367 C 279.199 246.670, 282.137 248.350, 285.443 246.844 L 288.110 245.629 285.805 244.350 C 282.857 242.714, 282.481 242.715, 281.110 244.367 M 276 249 C 276 249.550, 276.477 250, 277.059 250 C 277.641 250, 277.840 249.550, 277.500 249 C 277.160 248.450, 276.684 248, 276.441 248 C 276.198 248, 276 248.450, 276 249 M 289.623 249.433 L 286.746 250.704 290.197 253.337 C 293.542 255.888, 293.948 255.950, 303.339 255.333 C 308.669 254.983, 312.845 254.512, 312.620 254.286 C 311.588 253.254, 296.281 248.016, 294.500 248.085 C 293.400 248.128, 291.205 248.734, 289.623 249.433 M 131 260.574 C 104.325 266.844, 85.200 271.750, 88.500 271.474 C 91.800 271.199, 115.375 269.404, 140.888 267.486 L 187.276 263.998 195.726 259.094 C 205.204 253.595, 205.412 253.971, 191.500 251.485 C 186.550 250.601, 181.825 249.719, 181 249.525 C 180.175 249.332, 157.675 254.303, 131 260.574 M 218.750 250.067 C 215.945 251.722, 216.726 253.153, 220.250 252.813 C 222.318 252.614, 223.500 251.960, 223.500 251.014 C 223.500 249.172, 221.083 248.690, 218.750 250.067 M 227 254 C 227 254.550, 227.450 255, 228 255 C 228.550 255, 229 254.550, 229 254 C 229 253.450, 228.550 253, 228 253 C 227.450 253, 227 253.450, 227 254 M 279 253.800 C 279 255.492, 281.524 257, 284.355 257 C 287.247 257, 287.271 256.957, 285.500 255 C 283.744 253.060, 279 252.184, 279 253.800 M 204.414 258.663 C 201.161 260.614, 198.275 262.450, 198 262.743 C 197.725 263.035, 201.325 262.980, 206 262.620 C 212.982 262.082, 214.820 261.583, 216.290 259.823 C 218.347 257.360, 217.745 256.496, 213.414 255.690 C 211.017 255.244, 209.009 255.907, 204.414 258.663 M 273.813 256.683 C 274.534 256.972, 275.397 256.936, 275.729 256.604 C 276.061 256.272, 275.471 256.036, 274.417 256.079 C 273.252 256.127, 273.015 256.364, 273.813 256.683 M 221.929 259.585 C 220.774 260.977, 220.963 261.129, 223.480 260.835 C 225.056 260.651, 226.530 259.938, 226.756 259.250 C 227.352 257.434, 223.492 257.702, 221.929 259.585 M 307.500 258.715 C 304.200 258.900, 300.871 259.276, 300.101 259.551 C 299.225 259.865, 301.649 262.231, 306.601 265.894 L 314.500 271.737 363.844 281.441 C 390.983 286.778, 413.353 290.981, 413.554 290.780 C 413.755 290.578, 393.575 283.109, 368.710 274.181 C 320.504 256.873, 324.108 257.783, 307.500 258.715 M 285.804 260.820 C 284.233 261.450, 284.247 261.683, 285.994 263.995 C 287.473 265.954, 289.614 266.838, 295.939 268.102 C 300.373 268.988, 304 269.579, 304 269.415 C 304 269.251, 301.334 267.066, 298.076 264.558 C 292.385 260.180, 289.554 259.317, 285.804 260.820 M 275 262.021 C 275 263.298, 279.780 265.554, 280.647 264.687 C 280.998 264.336, 280.716 263.362, 280.020 262.524 C 278.598 260.811, 275 260.451, 275 262.021 M 236.500 265 C 236.160 265.550, 236.359 266, 236.941 266 C 237.523 266, 238 265.550, 238 265 C 238 264.450, 237.802 264, 237.559 264 C 237.316 264, 236.840 264.450, 236.500 265 M 219 265.715 C 216.548 266.150, 207.745 273.870, 205.927 277.181 C 205.199 278.506, 206.612 278.206, 212.621 275.759 C 218.261 273.462, 220.726 271.857, 222.115 269.578 C 225.005 264.839, 224.873 264.675, 219 265.715 M 227.476 267.075 C 226.642 269.703, 226.969 269.968, 229.750 268.916 C 230.988 268.447, 232 267.375, 232 266.532 C 232 264.228, 228.237 264.679, 227.476 267.075 M 199 267.105 C 193.775 267.562, 188.495 268.387, 187.266 268.939 C 183.783 270.504, 100.624 319.156, 99.500 320.287 C 98.833 320.958, 98.833 321.111, 99.500 320.746 C 100.050 320.445, 121.650 311.803, 147.500 301.543 C 187.701 285.587, 195.055 282.354, 198.335 279.194 C 203.313 274.400, 210.428 265.961, 209.343 266.138 C 208.879 266.213, 204.225 266.649, 199 267.105 M 269 268.312 C 269 269.698, 273.771 273.562, 274.537 272.796 C 274.737 272.597, 274.349 271.327, 273.675 269.975 C 272.298 267.213, 269 266.040, 269 268.312 M 278.395 271.595 C 279.241 275.155, 281.735 277.333, 289.400 281.202 L 295.307 284.184 290.487 277.342 C 287.836 273.579, 285.573 270.368, 285.458 270.207 C 285.342 270.046, 283.551 269.639, 281.477 269.302 C 277.731 268.695, 277.710 268.710, 278.395 271.595 M 236.250 270.662 C 235.563 270.940, 235 272.270, 235 273.619 C 235 275.760, 235.253 275.935, 237 275 C 238.100 274.411, 239 273.045, 239 271.965 C 239 269.978, 238.516 269.748, 236.250 270.662 M 262 273.265 C 262 275.569, 263.643 278, 265.200 278 C 266.917 278, 265.923 273.029, 264 272 C 262.265 271.072, 262 271.240, 262 273.265 M 295.144 277.001 C 303.527 288.938, 303.568 288.967, 343.500 310.574 C 364.400 321.882, 384.875 332.964, 389 335.199 C 393.125 337.434, 396.275 339.025, 396 338.734 C 395.102 337.783, 316.079 278.097, 313.758 276.617 C 312.516 275.824, 307.675 274.432, 303 273.522 C 298.325 272.613, 293.665 271.628, 292.644 271.333 C 291.271 270.937, 291.921 272.410, 295.144 277.001 M 226.407 274.520 C 223.522 275.786, 221.540 279.115, 217.196 289.992 C 216.654 291.349, 219.937 288.989, 227.200 282.801 C 228.831 281.411, 230.162 279.015, 230.561 276.750 C 231.283 272.660, 230.996 272.506, 226.407 274.520 M 244.667 273.667 C 244.300 274.033, 244.015 275.721, 244.033 277.417 L 244.067 280.500 245.983 278.201 C 248.372 275.336, 247.163 271.171, 244.667 273.667 M 253.580 274.748 C 252.902 276.884, 253.739 280, 254.990 280 C 256.496 280, 256.942 275.514, 255.573 274.144 C 254.416 272.988, 254.109 273.081, 253.580 274.748 M 270 279.296 C 270 283.185, 270.532 284.089, 276.007 289.507 L 282.014 295.451 279.245 287.209 C 276.962 280.417, 275.906 278.621, 273.238 276.998 L 270 275.029 270 279.296 M 206.836 282.326 L 197.173 286.500 164.454 322.500 C 146.459 342.300, 130.783 359.589, 129.618 360.920 C 127.688 363.126, 144.539 349.741, 191.751 311.567 C 207.994 298.434, 209.162 297.256, 212.102 291.067 C 216.951 280.860, 218.089 277.994, 217.263 278.076 C 216.844 278.117, 212.151 280.030, 206.836 282.326 M 236.729 280.390 C 234.572 282.117, 233.744 283.924, 232.985 288.554 C 231.154 299.735, 231.528 300.183, 236.500 292.771 C 240.823 286.327, 241.647 283.429, 240.180 279.836 C 239.570 278.344, 239.215 278.401, 236.729 280.390 M 259.003 282.596 C 257.849 286.447, 257.982 287.007, 261.846 294.568 L 265.900 302.500 265.950 293.766 C 265.997 285.512, 265.841 284.853, 263.107 281.793 L 260.214 278.555 259.003 282.596 M 247.615 283.465 C 245.712 286.369, 245.673 288.303, 247.338 297 L 248.582 303.500 250.791 296.345 C 253.332 288.114, 253.422 287.020, 251.839 283.547 C 250.392 280.370, 249.652 280.355, 247.615 283.465 M 282.187 283.065 C 282.485 283.854, 284.027 288.511, 285.614 293.413 L 288.500 302.326 324.352 339.163 C 344.071 359.423, 360.374 376, 360.581 376 C 360.788 376, 347.355 357.033, 330.729 333.852 L 300.500 291.703 291.072 286.667 C 285.771 283.835, 281.882 282.258, 282.187 283.065 M 220.316 293.607 L 212.231 300.146 190.935 345.823 C 179.222 370.945, 169.429 391.950, 169.173 392.500 C 167.463 396.168, 174.010 386.624, 198.672 349.500 L 226.574 307.500 227.803 297.600 C 228.480 292.155, 228.891 287.557, 228.717 287.383 C 228.543 287.209, 224.762 290.010, 220.316 293.607 M 270 299.928 L 270 310.307 293.194 356.126 C 305.951 381.327, 316.507 401.826, 316.654 401.680 C 316.800 401.534, 309.755 379.608, 300.999 352.957 L 285.079 304.500 277.539 297.025 L 270 289.550 270 299.928 M 236.274 300.612 L 230.133 309.725 223.124 361.087 C 219.269 389.336, 216.215 412.549, 216.338 412.671 C 216.460 412.794, 223.182 390.305, 231.274 362.697 L 245.987 312.500 244.201 302 L 242.415 291.500 236.274 300.612 M 253.516 301.591 C 252.061 306.491, 250.678 311.091, 250.442 311.813 C 250.029 313.082, 267.106 416.227, 267.641 415.692 C 267.786 415.547, 267.478 391.941, 266.957 363.234 L 266.008 311.041 261.085 301.862 L 256.161 292.682 253.516 301.591" stroke="none" fill="black" fill-rule="evenodd"/>
</svg>